<svg xmlns="http://www.w3.org/2000/svg" xmlns:xlink="http://www.w3.org/1999/xlink" width="120" height="24.092" viewBox="0 0 120 24.092"><defs><clipPath id="a"><rect width="120" height="24.092" fill="#fff"></rect></clipPath></defs><g transform="translate(0 0)"><g transform="translate(0 0)" clip-path="url(#a)"><path d="M2.3,24.093a2.3,2.3,0,0,1-2.3-2.3V2.3a2.3,2.3,0,0,1,4.6,0V21.792a2.3,2.3,0,0,1-2.3,2.3" transform="translate(0 -0.001)" fill="#fff"></path><path d="M56.549,24.093a2.3,2.3,0,0,1-2.3-2.3V12.048a7.442,7.442,0,1,0-14.884,0v9.744a2.3,2.3,0,0,1-4.6,0V12.048a12.046,12.046,0,1,1,24.092,0v9.744a2.3,2.3,0,0,1-2.3,2.3" transform="translate(-23.249 -0.001)" fill="#fff"></path><path d="M224.852,24.093h-9.744a12.046,12.046,0,1,1,0-24.091h9.744a2.3,2.3,0,0,1,0,4.6h-9.744a7.442,7.442,0,0,0,0,14.884h9.744a2.3,2.3,0,0,1,0,4.6" transform="translate(-135.821 -0.001)" fill="#fff"></path><path d="M244.535,34.031h-9.744a2.3,2.3,0,0,1,0-4.6h9.744a2.3,2.3,0,0,1,0,4.6" transform="translate(-155.504 -19.683)" fill="#fff"></path><path d="M130.954,24.092a6.433,6.433,0,0,1-6.033-4.45l-5.88-16.57a2.3,2.3,0,1,1,4.337-1.54L129.26,18.1a1.729,1.729,0,0,0,3.388,0l5.88-16.57a2.3,2.3,0,0,1,4.339,1.54l-5.881,16.57a6.434,6.434,0,0,1-6.033,4.45" transform="translate(-79.533 0)" fill="#fff"></path><path d="M301.688,24.092a12.045,12.045,0,1,1,12.045-12.045,12.058,12.058,0,0,1-12.045,12.045m0-19.486a7.441,7.441,0,1,0,7.441,7.441,7.449,7.449,0,0,0-7.441-7.441" transform="translate(-193.732 -0.002)" fill="#fff"></path></g></g></svg>